<svg width="407" height="124" viewBox="0 0 407 124" fill="none" xmlns="http://www.w3.org/2000/svg">
<path fill-rule="evenodd" clip-rule="evenodd" d="M61.8499 2.75V3.64062C70.7168 4.75063 77.5999 12.3369 77.5999 21.5C77.5999 31.4253 69.5252 39.5 59.5999 39.5C49.6746 39.5 41.5999 31.4253 41.5999 21.5C41.596 17.1386 43.1826 12.9254 46.0624 9.65L45.2562 8.84375C44.8335 8.42106 44.596 7.84777 44.596 7.25C44.596 6.65223 44.8335 6.07894 45.2562 5.65625C45.6788 5.23356 46.2521 4.9961 46.8499 4.9961C47.4477 4.9961 48.021 5.23356 48.4437 5.65625L49.4346 6.65281C51.7942 5.03027 54.5086 3.99732 57.3499 3.64062V2.75C57.3499 2.15326 57.587 1.58097 58.0089 1.15901C58.4309 0.737053 59.0032 0.5 59.5999 0.5C60.1966 0.5 60.7689 0.737053 61.1909 1.15901C61.6129 1.58097 61.8499 2.15326 61.8499 2.75ZM56.7002 24.9401C57.5116 25.6243 58.5386 25.9997 59.5999 26C60.6612 25.9997 61.6883 25.6243 62.4996 24.9401C63.3109 24.2559 63.8543 23.307 64.0338 22.261C64.2133 21.215 64.0173 20.1392 63.4804 19.2237C62.9436 18.3082 62.1004 17.6119 61.0999 17.2578V10.25C61.0999 9.85218 60.9419 9.47064 60.6606 9.18934C60.3793 8.90804 59.9977 8.75 59.5999 8.75C59.2021 8.75 58.8206 8.90804 58.5392 9.18934C58.2579 9.47064 58.0999 9.85218 58.0999 10.25V17.2578C57.0994 17.6119 56.2562 18.3082 55.7194 19.2237C55.1825 20.1392 54.9865 21.215 55.166 22.261C55.3455 23.307 55.8889 24.2559 56.7002 24.9401ZM59.6 23C60.4284 23 61.1 22.3284 61.1 21.5C61.1 20.6716 60.4284 20 59.6 20C58.7715 20 58.1 20.6716 58.1 21.5C58.1 22.3284 58.7715 23 59.6 23ZM10.4 85.1C10.4 98.3667 17.4667 105 31.6 105H41.1C41.8333 105 42.4333 104.767 42.9 104.3C43.3667 103.767 43.6 103.167 43.6 102.5V93.3C43.6 92.5667 43.3667 91.9667 42.9 91.5C42.4333 90.9667 41.8333 90.7 41.1 90.7H33.2C31.2667 90.7 29.8667 90.1 29 88.9C28.1333 87.7 27.7 85.9333 27.7 83.6V66.6H40.2C40.9333 66.6 41.5333 66.3667 42 65.9C42.5333 65.4333 42.8 64.8333 42.8 64.1V55.5C42.8 54.7667 42.5333 54.1667 42 53.7C41.5333 53.2333 40.9333 53 40.2 53H27.7V36.5C27.7 35.7667 27.4667 35.1667 27 34.7C26.5333 34.2333 25.9333 34 25.2 34H12.9C12.2333 34 11.6333 34.2333 11.1 34.7C10.6333 35.1667 10.4 35.7667 10.4 36.5V53H2.5C1.83333 53 1.23333 53.2333 0.699999 53.7C0.233332 54.1667 0 54.7667 0 55.5V64.1C0 64.7667 0.233332 65.3667 0.699999 65.9C1.23333 66.3667 1.83333 66.6 2.5 66.6H10.4V85.1ZM52.3633 104.3C52.8966 104.767 53.4966 105 54.1633 105H66.6633C67.3966 105 67.9966 104.767 68.4633 104.3C68.9966 103.833 69.2633 103.233 69.2633 102.5V55.5C69.2633 54.7667 68.9966 54.1667 68.4633 53.7C67.9966 53.2333 67.3966 53 66.6633 53H54.1633C53.4966 53 52.8966 53.2333 52.3633 53.7C51.8966 54.1667 51.6633 54.7667 51.6633 55.5V102.5C51.6633 103.167 51.8966 103.767 52.3633 104.3ZM81.3672 104.3C81.9005 104.767 82.5005 105 83.1672 105H95.7672C96.5005 105 97.1005 104.767 97.5672 104.3C98.0339 103.767 98.2672 103.167 98.2672 102.5V74.7C98.2672 71.7 98.9339 69.5 100.267 68.1C101.601 66.6333 103.301 65.9 105.367 65.9C107.501 65.9 109.234 66.6333 110.567 68.1C111.901 69.5 112.567 71.7333 112.567 74.8V102.5C112.567 103.233 112.801 103.833 113.267 104.3C113.801 104.767 114.434 105 115.167 105H127.467C128.201 105 128.801 104.767 129.267 104.3C129.734 103.767 129.967 103.167 129.967 102.5V74.8C129.967 71.7333 130.601 69.5 131.867 68.1C133.201 66.6333 134.901 65.9 136.967 65.9C139.167 65.9 140.901 66.6333 142.167 68.1C143.501 69.5 144.167 71.7333 144.167 74.8V102.5C144.167 103.233 144.401 103.833 144.867 104.3C145.401 104.767 146.034 105 146.767 105H159.067C159.801 105 160.401 104.767 160.867 104.3C161.334 103.767 161.567 103.167 161.567 102.5V74.1C161.567 66.7667 159.834 61.2667 156.367 57.6C152.967 53.8667 148.534 52 143.067 52C139.801 52 136.734 52.8 133.867 54.4C131.001 56 128.767 58.0667 127.167 60.6C124.434 54.8667 119.401 52 112.067 52C108.867 52 106.001 52.6667 103.467 54C100.934 55.3333 98.8672 56.9667 97.2672 58.9V55.5C97.2672 54.7667 97.0339 54.1667 96.5672 53.7C96.1005 53.2333 95.5005 53 94.7672 53H83.1672C82.5005 53 81.9005 53.2333 81.3672 53.7C80.9005 54.1667 80.6672 54.7667 80.6672 55.5V102.5C80.6672 103.167 80.9005 103.767 81.3672 104.3ZM177.664 99.5C182.331 103.833 188.731 106 196.864 106C201.997 106 206.431 105.167 210.164 103.5C213.964 101.833 216.831 99.8333 218.764 97.5C220.764 95.1667 221.764 93.1333 221.764 91.4C221.764 90.8667 221.531 90.4333 221.064 90.1C220.664 89.7 220.164 89.5 219.564 89.5H206.464C205.664 89.5 205.064 89.6 204.664 89.8C204.331 89.9333 203.864 90.3333 203.264 91C202.397 92 201.464 92.8333 200.464 93.5C199.531 94.1 198.264 94.4 196.664 94.4C194.197 94.4 192.297 93.5 190.964 91.7C189.631 89.8333 188.931 87.4 188.864 84.4V83.8H220.564C221.297 83.8 221.897 83.5667 222.364 83.1C222.897 82.5667 223.164 81.9333 223.164 81.2V78.7C223.164 73.5667 222.164 69 220.164 65C218.231 60.9333 215.264 57.7667 211.264 55.5C207.331 53.1667 202.497 52 196.764 52C188.831 52 182.531 54.2333 177.864 58.7C173.197 63.1667 170.731 69.3667 170.464 77.3V80.4C170.597 88.7333 172.997 95.1 177.664 99.5ZM204.764 73.4V73.6H188.864V73.4C188.864 70.2 189.531 67.7333 190.864 66C192.264 64.2 194.231 63.3 196.764 63.3C199.297 63.3 201.264 64.2 202.664 66C204.064 67.7333 204.764 70.2 204.764 73.4ZM232.832 123.3C233.365 123.767 233.999 124 234.732 124H247.632C248.365 124 248.965 123.767 249.432 123.3C249.899 122.833 250.132 122.233 250.132 121.5V99.4C253.332 103.8 258.165 106 264.632 106C271.032 106 276.099 103.933 279.832 99.8C283.565 95.6667 285.565 90 285.832 82.8C285.899 81.8667 285.932 80.6 285.932 79C285.932 77.4 285.899 76.1667 285.832 75.3C285.565 67.8333 283.565 62.1 279.832 58.1C276.165 54.0333 271.099 52 264.632 52C257.899 52 252.732 54.3667 249.132 59.1V55.5C249.132 54.7667 248.899 54.1667 248.432 53.7C247.965 53.2333 247.365 53 246.632 53H234.732C233.999 53 233.365 53.2333 232.832 53.7C232.365 54.1667 232.132 54.7667 232.132 55.5V121.5C232.132 122.233 232.365 122.833 232.832 123.3ZM265.232 89.5C263.965 91.2333 261.832 92.1 258.832 92.1C256.032 92.1 253.899 91.2667 252.432 89.6C251.032 87.8667 250.265 85.7 250.132 83.1C250.065 82.2333 250.032 81 250.032 79.4C250.032 77.7333 250.065 76.4667 250.132 75.6C250.265 72.8 251.032 70.5 252.432 68.7C253.832 66.8333 255.965 65.9 258.832 65.9C261.832 65.9 263.965 66.8 265.232 68.6C266.565 70.3333 267.332 72.7667 267.532 75.9C267.599 76.5667 267.632 77.6 267.632 79C267.632 80.4 267.599 81.4333 267.532 82.1C267.332 85.2333 266.565 87.7 265.232 89.5ZM301.511 104C304.444 105.333 307.678 106 311.211 106C314.811 106 317.911 105.367 320.511 104.1C323.111 102.767 325.144 101.067 326.611 99V102.5C326.611 103.167 326.844 103.767 327.311 104.3C327.844 104.767 328.444 105 329.111 105H341.411C342.144 105 342.744 104.767 343.211 104.3C343.678 103.767 343.911 103.167 343.911 102.5V72.2C343.911 66 341.911 61.1 337.911 57.5C333.911 53.8333 327.778 52 319.511 52C314.311 52 309.944 52.8 306.411 54.4C302.878 56 300.244 57.9333 298.511 60.2C296.778 62.4 295.878 64.4 295.811 66.2C295.744 66.8 295.911 67.3333 296.311 67.8C296.778 68.2 297.344 68.4 298.011 68.4H309.611C310.011 68.4 310.344 68.1667 310.611 67.7C311.278 67.3667 312.044 66.8333 312.911 66.1C314.044 65.1667 315.044 64.4667 315.911 64C316.844 63.5333 317.978 63.3 319.311 63.3C321.711 63.3 323.411 63.8667 324.411 65C325.411 66.1333 325.911 67.9333 325.911 70.4V71.6L313.511 73.5C306.911 74.5667 301.711 76.5333 297.911 79.4C294.178 82.2 292.311 85.8667 292.311 90.4C292.311 93.2667 293.111 95.9 294.711 98.3C296.378 100.7 298.644 102.6 301.511 104ZM323.311 91.3C321.511 93.2333 319.144 94.2 316.211 94.2C314.278 94.2 312.644 93.7333 311.311 92.8C310.044 91.8667 309.411 90.6333 309.411 89.1C309.411 86.1667 312.211 84.1667 317.811 83.1L326.111 81.7V82.9C326.111 86.5667 325.178 89.3667 323.311 91.3ZM358.988 99.9C362.722 103.967 367.822 106 374.288 106C381.022 106 386.188 103.8 389.788 99.4V102.5C389.788 103.167 390.022 103.767 390.488 104.3C391.022 104.767 391.622 105 392.288 105H404.188C404.922 105 405.522 104.767 405.988 104.3C406.522 103.833 406.788 103.233 406.788 102.5V36.5C406.788 35.7667 406.522 35.1667 405.988 34.7C405.522 34.2333 404.922 34 404.188 34H391.288C390.622 34 390.022 34.2333 389.488 34.7C389.022 35.1667 388.788 35.7667 388.788 36.5V57.8C385.122 53.9333 380.288 52 374.288 52C367.888 52 362.822 54.1 359.088 58.3C355.355 62.4333 353.355 68.1333 353.088 75.4L352.988 79L353.088 82.5C353.355 90.0333 355.322 95.8333 358.988 99.9ZM386.488 89.4C385.088 91.2 382.955 92.1 380.088 92.1C377.088 92.1 374.922 91.2333 373.588 89.5C372.322 87.7 371.588 85.2333 371.388 82.1L371.288 79L371.388 75.9C371.588 72.7667 372.322 70.3333 373.588 68.6C374.922 66.8 377.088 65.9 380.088 65.9C382.888 65.9 384.988 66.7667 386.388 68.5C387.855 70.1667 388.655 72.3 388.788 74.9C388.922 76.6333 388.988 77.8667 388.988 78.6C388.988 79.2667 388.922 80.5333 388.788 82.4C388.655 85.2 387.888 87.5333 386.488 89.4Z" fill="url(#paint0_radial_19_564)"/>
<defs>
<radialGradient id="paint0_radial_19_564" cx="0" cy="0" r="1" gradientUnits="userSpaceOnUse" gradientTransform="translate(579.673 17.4813) rotate(161.829) scale(396.028 235.396)">
<stop stop-color="white"/>
<stop offset="1" stop-color="#7012CE"/>
</radialGradient>
</defs>
</svg>
