<svg width="407" height="124" viewBox="0 0 407 124" fill="none" xmlns="http://www.w3.org/2000/svg">
<path fill-rule="evenodd" clip-rule="evenodd" d="M40.5 19.5C40.5 8.73094 49.2309 0 60 0C70.7691 0 79.5 8.73094 79.5 19.5C79.5 30.2691 70.7691 39 60 39C49.2309 39 40.5 30.2691 40.5 19.5ZM60 22.5H69C69.3978 22.5 69.7794 22.342 70.0607 22.0607C70.342 21.7794 70.5 21.3978 70.5 21C70.5 20.6022 70.342 20.2206 70.0607 19.9393C69.7794 19.658 69.3978 19.5 69 19.5H61.5V7.5C61.5 7.10218 61.342 6.72064 61.0607 6.43934C60.7794 6.15804 60.3978 6 60 6C59.6022 6 59.2206 6.15804 58.9393 6.43934C58.658 6.72064 58.5 7.10218 58.5 7.5V21C58.5 21.3978 58.658 21.7794 58.9393 22.0607C59.2206 22.342 59.6022 22.5 60 22.5ZM31.6 104.5C17.4667 104.5 10.4 97.8667 10.4 84.6V66.1H2.5C1.83333 66.1 1.23333 65.8667 0.699999 65.4C0.233332 64.8667 0 64.2667 0 63.6V55C0 54.2667 0.233332 53.6667 0.699999 53.2C1.23333 52.7333 1.83333 52.5 2.5 52.5H10.4V36C10.4 35.2667 10.6333 34.6667 11.1 34.2C11.6333 33.7333 12.2333 33.5 12.9 33.5H25.2C25.9333 33.5 26.5333 33.7333 27 34.2C27.4667 34.6667 27.7 35.2667 27.7 36V52.5H40.2C40.9333 52.5 41.5333 52.7333 42 53.2C42.5333 53.6667 42.8 54.2667 42.8 55V63.6C42.8 64.3333 42.5333 64.9333 42 65.4C41.5333 65.8667 40.9333 66.1 40.2 66.1H27.7V83.1C27.7 85.4333 28.1333 87.2 29 88.4C29.8667 89.6 31.2667 90.2 33.2 90.2H41.1C41.8333 90.2 42.4333 90.4667 42.9 91C43.3667 91.4667 43.6 92.0667 43.6 92.8V102C43.6 102.667 43.3667 103.267 42.9 103.8C42.4333 104.267 41.8333 104.5 41.1 104.5H31.6ZM54.1633 104.5C53.4966 104.5 52.8966 104.267 52.3633 103.8C51.8966 103.267 51.6633 102.667 51.6633 102V55C51.6633 54.2667 51.8966 53.6667 52.3633 53.2C52.8966 52.7333 53.4966 52.5 54.1633 52.5H66.6633C67.3966 52.5 67.9966 52.7333 68.4633 53.2C68.9966 53.6667 69.2633 54.2667 69.2633 55V102C69.2633 102.733 68.9966 103.333 68.4633 103.8C67.9966 104.267 67.3966 104.5 66.6633 104.5H54.1633ZM83.1672 104.5C82.5005 104.5 81.9005 104.267 81.3672 103.8C80.9005 103.267 80.6672 102.667 80.6672 102V55C80.6672 54.2667 80.9005 53.6667 81.3672 53.2C81.9005 52.7333 82.5005 52.5 83.1672 52.5H94.7672C95.5005 52.5 96.1005 52.7333 96.5672 53.2C97.0339 53.6667 97.2672 54.2667 97.2672 55V58.4C98.8672 56.4667 100.934 54.8333 103.467 53.5C106.001 52.1667 108.867 51.5 112.067 51.5C119.401 51.5 124.434 54.3667 127.167 60.1C128.767 57.5667 131.001 55.5 133.867 53.9C136.734 52.3 139.801 51.5 143.067 51.5C148.534 51.5 152.967 53.3667 156.367 57.1C159.834 60.7667 161.567 66.2667 161.567 73.6V102C161.567 102.667 161.334 103.267 160.867 103.8C160.401 104.267 159.801 104.5 159.067 104.5H146.767C146.034 104.5 145.401 104.267 144.867 103.8C144.401 103.333 144.167 102.733 144.167 102V74.3C144.167 71.2333 143.501 69 142.167 67.6C140.901 66.1333 139.167 65.4 136.967 65.4C134.901 65.4 133.201 66.1333 131.867 67.6C130.601 69 129.967 71.2333 129.967 74.3V102C129.967 102.667 129.734 103.267 129.267 103.8C128.801 104.267 128.201 104.5 127.467 104.5H115.167C114.434 104.5 113.801 104.267 113.267 103.8C112.801 103.333 112.567 102.733 112.567 102V74.3C112.567 71.2333 111.901 69 110.567 67.6C109.234 66.1333 107.501 65.4 105.367 65.4C103.301 65.4 101.601 66.1333 100.267 67.6C98.9339 69 98.2672 71.2 98.2672 74.2V102C98.2672 102.667 98.0339 103.267 97.5672 103.8C97.1005 104.267 96.5005 104.5 95.7672 104.5H83.1672ZM196.864 105.5C188.731 105.5 182.331 103.333 177.664 99C172.997 94.6 170.597 88.2333 170.464 79.9V76.8C170.731 68.8667 173.197 62.6667 177.864 58.2C182.531 53.7333 188.831 51.5 196.764 51.5C202.497 51.5 207.331 52.6667 211.264 55C215.264 57.2667 218.231 60.4333 220.164 64.5C222.164 68.5 223.164 73.0667 223.164 78.2V80.7C223.164 81.4333 222.897 82.0667 222.364 82.6C221.897 83.0667 221.297 83.3 220.564 83.3H188.864V83.9C188.931 86.9 189.631 89.3333 190.964 91.2C192.297 93 194.197 93.9 196.664 93.9C198.264 93.9 199.531 93.6 200.464 93C201.464 92.3333 202.397 91.5 203.264 90.5C203.864 89.8333 204.331 89.4333 204.664 89.3C205.064 89.1 205.664 89 206.464 89H219.564C220.164 89 220.664 89.2 221.064 89.6C221.531 89.9333 221.764 90.3667 221.764 90.9C221.764 92.6333 220.764 94.6667 218.764 97C216.831 99.3333 213.964 101.333 210.164 103C206.431 104.667 201.997 105.5 196.864 105.5ZM204.764 73.1V72.9C204.764 69.7 204.064 67.2333 202.664 65.5C201.264 63.7 199.297 62.8 196.764 62.8C194.231 62.8 192.264 63.7 190.864 65.5C189.531 67.2333 188.864 69.7 188.864 72.9V73.1H204.764ZM234.732 123.5C233.999 123.5 233.365 123.267 232.832 122.8C232.365 122.333 232.132 121.733 232.132 121V55C232.132 54.2667 232.365 53.6667 232.832 53.2C233.365 52.7333 233.999 52.5 234.732 52.5H246.632C247.365 52.5 247.965 52.7333 248.432 53.2C248.899 53.6667 249.132 54.2667 249.132 55V58.6C252.732 53.8667 257.899 51.5 264.632 51.5C271.099 51.5 276.165 53.5333 279.832 57.6C283.565 61.6 285.565 67.3333 285.832 74.8C285.899 75.6667 285.932 76.9 285.932 78.5C285.932 80.1 285.899 81.3667 285.832 82.3C285.565 89.5 283.565 95.1667 279.832 99.3C276.099 103.433 271.032 105.5 264.632 105.5C258.165 105.5 253.332 103.3 250.132 98.9V121C250.132 121.733 249.899 122.333 249.432 122.8C248.965 123.267 248.365 123.5 247.632 123.5H234.732ZM258.832 91.6C261.832 91.6 263.965 90.7333 265.232 89C266.565 87.2 267.332 84.7333 267.532 81.6C267.599 80.9333 267.632 79.9 267.632 78.5C267.632 77.1 267.599 76.0667 267.532 75.4C267.332 72.2667 266.565 69.8333 265.232 68.1C263.965 66.3 261.832 65.4 258.832 65.4C255.965 65.4 253.832 66.3333 252.432 68.2C251.032 70 250.265 72.3 250.132 75.1C250.065 75.9667 250.032 77.2333 250.032 78.9C250.032 80.5 250.065 81.7333 250.132 82.6C250.265 85.2 251.032 87.3667 252.432 89.1C253.899 90.7667 256.032 91.6 258.832 91.6ZM311.211 105.5C307.678 105.5 304.444 104.833 301.511 103.5C298.644 102.1 296.378 100.2 294.711 97.8C293.111 95.4 292.311 92.7667 292.311 89.9C292.311 85.3667 294.178 81.7 297.911 78.9C301.711 76.0333 306.911 74.0667 313.511 73L325.911 71.1V69.9C325.911 67.4333 325.411 65.6333 324.411 64.5C323.411 63.3667 321.711 62.8 319.311 62.8C317.978 62.8 316.844 63.0333 315.911 63.5C315.044 63.9667 314.044 64.6667 312.911 65.6C312.044 66.3333 311.278 66.8667 310.611 67.2C310.344 67.6667 310.011 67.9 309.611 67.9H298.011C297.344 67.9 296.778 67.7 296.311 67.3C295.911 66.8333 295.744 66.3 295.811 65.7C295.878 63.9 296.778 61.9 298.511 59.7C300.244 57.4333 302.878 55.5 306.411 53.9C309.944 52.3 314.311 51.5 319.511 51.5C327.778 51.5 333.911 53.3333 337.911 57C341.911 60.6 343.911 65.5 343.911 71.7V102C343.911 102.667 343.678 103.267 343.211 103.8C342.744 104.267 342.144 104.5 341.411 104.5H329.111C328.444 104.5 327.844 104.267 327.311 103.8C326.844 103.267 326.611 102.667 326.611 102V98.5C325.144 100.567 323.111 102.267 320.511 103.6C317.911 104.867 314.811 105.5 311.211 105.5ZM316.211 93.7C319.144 93.7 321.511 92.7333 323.311 90.8C325.178 88.8667 326.111 86.0667 326.111 82.4V81.2L317.811 82.6C312.211 83.6667 309.411 85.6667 309.411 88.6C309.411 90.1333 310.044 91.3667 311.311 92.3C312.644 93.2333 314.278 93.7 316.211 93.7ZM374.288 105.5C367.822 105.5 362.722 103.467 358.988 99.4C355.322 95.3333 353.355 89.5333 353.088 82L352.988 78.5L353.088 74.9C353.355 67.6333 355.355 61.9333 359.088 57.8C362.822 53.6 367.888 51.5 374.288 51.5C380.288 51.5 385.122 53.4333 388.788 57.3V36C388.788 35.2667 389.022 34.6667 389.488 34.2C390.022 33.7333 390.622 33.5 391.288 33.5H404.188C404.922 33.5 405.522 33.7333 405.988 34.2C406.522 34.6667 406.788 35.2667 406.788 36V102C406.788 102.733 406.522 103.333 405.988 103.8C405.522 104.267 404.922 104.5 404.188 104.5H392.288C391.622 104.5 391.022 104.267 390.488 103.8C390.022 103.267 389.788 102.667 389.788 102V98.9C386.188 103.3 381.022 105.5 374.288 105.5ZM380.088 91.6C382.955 91.6 385.088 90.7 386.488 88.9C387.888 87.0333 388.655 84.7 388.788 81.9C388.922 80.0333 388.988 78.7667 388.988 78.1C388.988 77.3667 388.922 76.1333 388.788 74.4C388.655 71.8 387.855 69.6667 386.388 68C384.988 66.2667 382.888 65.4 380.088 65.4C377.088 65.4 374.922 66.3 373.588 68.1C372.322 69.8333 371.588 72.2667 371.388 75.4L371.288 78.5L371.388 81.6C371.588 84.7333 372.322 87.2 373.588 89C374.922 90.7333 377.088 91.6 380.088 91.6Z" fill="#7041EE"/>
</svg>
